<svg xmlns="http://www.w3.org/2000/svg" viewBox="0 0 1460 1836" width="1460" height="1836">
  <defs>
    <style>
      text { font-family: 'Helvetica Neue', Helvetica, Arial, 'PingFang SC', sans-serif; }
    </style>
    <marker id="arrow-include" markerWidth="11" markerHeight="8" refX="10" refY="4" orient="auto">
      <path d="M 0,0 L 10,4 L 0,8" fill="none" stroke="#7c3aed" stroke-width="1.4" stroke-linecap="round" stroke-linejoin="round"/>
    </marker>
    <marker id="arrow-extend" markerWidth="11" markerHeight="8" refX="10" refY="4" orient="auto">
      <path d="M 0,0 L 10,4 L 0,8" fill="none" stroke="#ea580c" stroke-width="1.4" stroke-linecap="round" stroke-linejoin="round"/>
    </marker>
    <marker id="triangle-general" markerWidth="14" markerHeight="12" refX="13" refY="6" orient="auto">
      <path d="M 0,0 L 13,6 L 0,12 Z" fill="#ffffff" stroke="#111827" stroke-width="1.4" stroke-linejoin="round"/>
    </marker>
  </defs>
  <rect x="0" y="0" width="1460" height="1836" fill="#ffffff"/>
  <text x="30" y="46" font-size="22" font-weight="600" fill="#111827">EscolaViva — UML Use Case Diagram</text>
  <text x="30" y="70" font-size="13" fill="#6b7280">User features derived from the HTTP routes in src/web/routes and the application use cases in src/&lt;module&gt;/application</text>
  <rect x="250" y="96" width="1160" height="1506" rx="14" ry="14" fill="#fdfdfe" stroke="#9ca3af" stroke-width="1.6" stroke-dasharray="9,6"/>
  <text x="268" y="126" font-size="15" font-weight="600" fill="#374151">EscolaViva system — multi-tenant school SaaS platform</text>
  <rect x="284" y="140" width="1112" height="136" rx="12" ry="12" fill="#f1f5f9" stroke="#cbd5e1" stroke-width="1.2" stroke-dasharray="5,4"/>
  <text x="300" y="164" font-size="13" font-weight="600" fill="#475569">Access and account — any authenticated user</text>
  <rect x="284" y="298" width="1112" height="236" rx="12" ry="12" fill="#faf5ff" stroke="#ddd6fe" stroke-width="1.2" stroke-dasharray="5,4"/>
  <text x="300" y="322" font-size="13" font-weight="600" fill="#7c3aed">Network administration</text>
  <rect x="284" y="556" width="1112" height="148" rx="12" ry="12" fill="#fff7ed" stroke="#fed7aa" stroke-width="1.2" stroke-dasharray="5,4"/>
  <text x="300" y="580" font-size="13" font-weight="600" fill="#ea580c">Communication with families</text>
  <rect x="284" y="726" width="1112" height="336" rx="12" ry="12" fill="#eff6ff" stroke="#bfdbfe" stroke-width="1.2" stroke-dasharray="5,4"/>
  <text x="300" y="750" font-size="13" font-weight="600" fill="#2563eb">Academic registrar</text>
  <rect x="284" y="1084" width="1112" height="236" rx="12" ry="12" fill="#f0fdf4" stroke="#bbf7d0" stroke-width="1.2" stroke-dasharray="5,4"/>
  <text x="300" y="1108" font-size="13" font-weight="600" fill="#16a34a">Teacher's journal</text>
  <rect x="284" y="1342" width="1112" height="236" rx="12" ry="12" fill="#f0fdfa" stroke="#99f6e4" stroke-width="1.2" stroke-dasharray="5,4"/>
  <text x="300" y="1366" font-size="13" font-weight="600" fill="#0d9488">Guardian's follow-up</text>
  <g stroke="#111827" stroke-width="1.4" fill="none">
    <path d="M 70,1484 V 232"/>
    <path d="M 140,440 H 70"/>
    <path d="M 140,918 H 70"/>
    <path d="M 140,1226 H 70"/>
    <path d="M 140,1484 H 70"/>
    <path d="M 70,232 H 136" marker-end="url(#triangle-general)"/>
  </g>
  <text x="58" y="858" font-size="11" fill="#6b7280" transform="rotate(-90 58 858)" text-anchor="middle">actor generalisation</text>
  <path d="M 180,232 H 268 V 232 H 295" fill="none" stroke="#475569" stroke-width="1.2" opacity="0.75"/>
  <path d="M 180,232 H 268 V 182 H 618 V 201" fill="none" stroke="#475569" stroke-width="1.2" opacity="0.75"/>
  <path d="M 180,232 H 268 V 182 H 840 V 201" fill="none" stroke="#475569" stroke-width="1.2" opacity="0.75"/>
  <path d="M 180,440 H 262 V 390 H 295" fill="none" stroke="#7c3aed" stroke-width="1.2" opacity="0.75"/>
  <path d="M 180,440 H 262 V 340 H 618 V 359" fill="none" stroke="#7c3aed" stroke-width="1.2" opacity="0.75"/>
  <path d="M 180,440 H 262 V 340 H 840 V 359" fill="none" stroke="#7c3aed" stroke-width="1.2" opacity="0.75"/>
  <path d="M 180,440 H 262 V 340 H 1062 V 359" fill="none" stroke="#7c3aed" stroke-width="1.2" opacity="0.75"/>
  <path d="M 180,440 H 262 V 648 H 295" fill="none" stroke="#7c3aed" stroke-width="1.2" opacity="0.75"/>
  <path d="M 180,440 H 262 V 598 H 618 V 617" fill="none" stroke="#7c3aed" stroke-width="1.2" opacity="0.75"/>
  <path d="M 180,918 H 270 V 690 H 395 V 679" fill="none" stroke="#2563eb" stroke-width="1.2" opacity="0.75"/>
  <path d="M 180,918 H 270 V 690 H 618 V 679" fill="none" stroke="#2563eb" stroke-width="1.2" opacity="0.75"/>
  <path d="M 180,918 H 270 V 818 H 295" fill="none" stroke="#2563eb" stroke-width="1.2" opacity="0.75"/>
  <path d="M 180,918 H 270 V 768 H 618 V 787" fill="none" stroke="#2563eb" stroke-width="1.2" opacity="0.75"/>
  <path d="M 180,918 H 270 V 768 H 840 V 787" fill="none" stroke="#2563eb" stroke-width="1.2" opacity="0.75"/>
  <path d="M 180,918 H 270 V 768 H 1062 V 787" fill="none" stroke="#2563eb" stroke-width="1.2" opacity="0.75"/>
  <path d="M 180,918 H 270 V 768 H 1285 V 787" fill="none" stroke="#2563eb" stroke-width="1.2" opacity="0.75"/>
  <path d="M 180,918 H 270 V 918 H 295" fill="none" stroke="#2563eb" stroke-width="1.2" opacity="0.75"/>
  <path d="M 180,918 H 270 V 868 H 618 V 887" fill="none" stroke="#2563eb" stroke-width="1.2" opacity="0.75"/>
  <path d="M 180,918 H 270 V 868 H 840 V 887" fill="none" stroke="#2563eb" stroke-width="1.2" opacity="0.75"/>
  <path d="M 180,918 H 270 V 868 H 1062 V 887" fill="none" stroke="#2563eb" stroke-width="1.2" opacity="0.75"/>
  <path d="M 180,918 H 270 V 868 H 1285 V 887" fill="none" stroke="#2563eb" stroke-width="1.2" opacity="0.75"/>
  <path d="M 180,918 H 270 V 1018 H 295" fill="none" stroke="#2563eb" stroke-width="1.2" opacity="0.75"/>
  <path d="M 180,1226 H 268 V 1176 H 295" fill="none" stroke="#16a34a" stroke-width="1.2" opacity="0.75"/>
  <path d="M 180,1226 H 268 V 1126 H 618 V 1145" fill="none" stroke="#16a34a" stroke-width="1.2" opacity="0.75"/>
  <path d="M 180,1226 H 268 V 1126 H 840 V 1145" fill="none" stroke="#16a34a" stroke-width="1.2" opacity="0.75"/>
  <path d="M 180,1226 H 268 V 1126 H 1062 V 1145" fill="none" stroke="#16a34a" stroke-width="1.2" opacity="0.75"/>
  <path d="M 180,1484 H 268 V 1434 H 295" fill="none" stroke="#0d9488" stroke-width="1.2" opacity="0.75"/>
  <path d="M 180,1484 H 268 V 1384 H 618 V 1403" fill="none" stroke="#0d9488" stroke-width="1.2" opacity="0.75"/>
  <path d="M 180,1484 H 268 V 1384 H 840 V 1403" fill="none" stroke="#0d9488" stroke-width="1.2" opacity="0.75"/>
  <path d="M 180,1484 H 268 V 1384 H 1062 V 1403" fill="none" stroke="#0d9488" stroke-width="1.2" opacity="0.75"/>
  <path d="M 180,1484 H 268 V 1384 H 1285 V 1403" fill="none" stroke="#0d9488" stroke-width="1.2" opacity="0.75"/>
  <path d="M 1062,421 V 459" fill="none" stroke="#7c3aed" stroke-width="1.4" stroke-dasharray="6,4" marker-end="url(#arrow-include)"/>
  <text x="1074" y="444" font-size="11.5" font-style="italic" fill="#7c3aed">«include»</text>
  <path d="M 618,949 V 987" fill="none" stroke="#7c3aed" stroke-width="1.4" stroke-dasharray="6,4" marker-end="url(#arrow-include)"/>
  <text x="630" y="972" font-size="11.5" font-style="italic" fill="#7c3aed">«include»</text>
  <path d="M 1062,1207 V 1245" fill="none" stroke="#7c3aed" stroke-width="1.4" stroke-dasharray="6,4" marker-end="url(#arrow-include)"/>
  <text x="1074" y="1230" font-size="11.5" font-style="italic" fill="#7c3aed">«include»</text>
  <path d="M 1285,1503 V 1465" fill="none" stroke="#ea580c" stroke-width="1.4" stroke-dasharray="6,4" marker-end="url(#arrow-extend)"/>
  <text x="1297" y="1488" font-size="11.5" font-style="italic" fill="#ea580c">«extend»</text>
  <ellipse cx="395" cy="232" rx="100" ry="31" fill="#f1f5f9" stroke="#475569" stroke-width="1.6"/>
  <text x="395" y="237" font-size="13" fill="#111827" text-anchor="middle">Authenticate</text>
  <ellipse cx="618" cy="232" rx="100" ry="31" fill="#f1f5f9" stroke="#475569" stroke-width="1.6"/>
  <text x="618" y="237" font-size="13" fill="#111827" text-anchor="middle">End session</text>
  <ellipse cx="840" cy="232" rx="100" ry="31" fill="#f1f5f9" stroke="#475569" stroke-width="1.6"/>
  <text x="840" y="237" font-size="13" fill="#111827" text-anchor="middle">Change own password</text>
  <ellipse cx="395" cy="390" rx="100" ry="31" fill="#faf5ff" stroke="#7c3aed" stroke-width="1.6"/>
  <text x="395" y="395" font-size="13" fill="#111827" text-anchor="middle">View network dashboard</text>
  <ellipse cx="618" cy="390" rx="100" ry="31" fill="#faf5ff" stroke="#7c3aed" stroke-width="1.6"/>
  <text x="618" y="395" font-size="13" fill="#111827" text-anchor="middle">Create school</text>
  <ellipse cx="840" cy="390" rx="100" ry="31" fill="#faf5ff" stroke="#7c3aed" stroke-width="1.6"/>
  <text x="840" y="395" font-size="13" fill="#111827" text-anchor="middle">Define academic year</text>
  <ellipse cx="1062" cy="390" rx="100" ry="31" fill="#faf5ff" stroke="#7c3aed" stroke-width="1.6"/>
  <text x="1062" y="395" font-size="13" fill="#111827" text-anchor="middle">Invite user</text>
  <ellipse cx="1062" cy="490" rx="100" ry="31" fill="#ffffff" stroke="#7c3aed" stroke-width="1.6" stroke-dasharray="6,4"/>
  <text x="1062" y="487" font-size="13" fill="#111827" text-anchor="middle">Generate temporary</text>
  <text x="1062" y="505" font-size="13" fill="#111827" text-anchor="middle">password</text>
  <ellipse cx="395" cy="648" rx="100" ry="31" fill="#fff7ed" stroke="#ea580c" stroke-width="1.6"/>
  <text x="395" y="653" font-size="13" fill="#111827" text-anchor="middle">Publish announcement</text>
  <ellipse cx="618" cy="648" rx="100" ry="31" fill="#fff7ed" stroke="#ea580c" stroke-width="1.6"/>
  <text x="618" y="645" font-size="13" fill="#111827" text-anchor="middle">Track announcement</text>
  <text x="618" y="663" font-size="13" fill="#111827" text-anchor="middle">reads</text>
  <ellipse cx="395" cy="818" rx="100" ry="31" fill="#eff6ff" stroke="#2563eb" stroke-width="1.6"/>
  <text x="395" y="815" font-size="13" fill="#111827" text-anchor="middle">Dashboard for the</text>
  <text x="395" y="833" font-size="13" fill="#111827" text-anchor="middle">registrar</text>
  <ellipse cx="618" cy="818" rx="100" ry="31" fill="#eff6ff" stroke="#2563eb" stroke-width="1.6"/>
  <text x="618" y="823" font-size="13" fill="#111827" text-anchor="middle">Register student</text>
  <ellipse cx="840" cy="818" rx="100" ry="31" fill="#eff6ff" stroke="#2563eb" stroke-width="1.6"/>
  <text x="840" y="815" font-size="13" fill="#111827" text-anchor="middle">View the student</text>
  <text x="840" y="833" font-size="13" fill="#111827" text-anchor="middle">record</text>
  <ellipse cx="1062" cy="818" rx="100" ry="31" fill="#eff6ff" stroke="#2563eb" stroke-width="1.6"/>
  <text x="1062" y="815" font-size="13" fill="#111827" text-anchor="middle">Register guardian</text>
  <text x="1062" y="833" font-size="13" fill="#111827" text-anchor="middle">with portal access</text>
  <ellipse cx="1285" cy="818" rx="100" ry="31" fill="#eff6ff" stroke="#2563eb" stroke-width="1.6"/>
  <text x="1285" y="815" font-size="13" fill="#111827" text-anchor="middle">Link a guardian</text>
  <text x="1285" y="833" font-size="13" fill="#111827" text-anchor="middle">to a student</text>
  <ellipse cx="395" cy="918" rx="100" ry="31" fill="#eff6ff" stroke="#2563eb" stroke-width="1.6"/>
  <text x="395" y="923" font-size="13" fill="#111827" text-anchor="middle">Enrol student</text>
  <ellipse cx="618" cy="918" rx="100" ry="31" fill="#eff6ff" stroke="#2563eb" stroke-width="1.6"/>
  <text x="618" y="923" font-size="13" fill="#111827" text-anchor="middle">Transfer enrollment</text>
  <ellipse cx="840" cy="918" rx="100" ry="31" fill="#eff6ff" stroke="#2563eb" stroke-width="1.6"/>
  <text x="840" y="923" font-size="13" fill="#111827" text-anchor="middle">Register class group</text>
  <ellipse cx="1062" cy="918" rx="100" ry="31" fill="#eff6ff" stroke="#2563eb" stroke-width="1.6"/>
  <text x="1062" y="923" font-size="13" fill="#111827" text-anchor="middle">View class group</text>
  <ellipse cx="1285" cy="918" rx="100" ry="31" fill="#eff6ff" stroke="#2563eb" stroke-width="1.6"/>
  <text x="1285" y="915" font-size="13" fill="#111827" text-anchor="middle">Assign a teacher</text>
  <text x="1285" y="933" font-size="13" fill="#111827" text-anchor="middle">to a subject</text>
  <ellipse cx="395" cy="1018" rx="100" ry="31" fill="#eff6ff" stroke="#2563eb" stroke-width="1.6"/>
  <text x="395" y="1023" font-size="13" fill="#111827" text-anchor="middle">Register subject</text>
  <ellipse cx="618" cy="1018" rx="100" ry="31" fill="#ffffff" stroke="#2563eb" stroke-width="1.6" stroke-dasharray="6,4"/>
  <text x="618" y="1015" font-size="13" fill="#111827" text-anchor="middle">Close the source</text>
  <text x="618" y="1033" font-size="13" fill="#111827" text-anchor="middle">enrollment</text>
  <ellipse cx="395" cy="1176" rx="100" ry="31" fill="#f0fdf4" stroke="#16a34a" stroke-width="1.6"/>
  <text x="395" y="1173" font-size="13" fill="#111827" text-anchor="middle">Dashboard for the</text>
  <text x="395" y="1191" font-size="13" fill="#111827" text-anchor="middle">teacher</text>
  <ellipse cx="618" cy="1176" rx="100" ry="31" fill="#f0fdf4" stroke="#16a34a" stroke-width="1.6"/>
  <text x="618" y="1181" font-size="13" fill="#111827" text-anchor="middle">Post grades</text>
  <ellipse cx="840" cy="1176" rx="100" ry="31" fill="#f0fdf4" stroke="#16a34a" stroke-width="1.6"/>
  <text x="840" y="1181" font-size="13" fill="#111827" text-anchor="middle">Record roll call</text>
  <ellipse cx="1062" cy="1176" rx="100" ry="31" fill="#f0fdf4" stroke="#16a34a" stroke-width="1.6"/>
  <text x="1062" y="1181" font-size="13" fill="#111827" text-anchor="middle">Close term</text>
  <ellipse cx="1062" cy="1276" rx="100" ry="31" fill="#ffffff" stroke="#16a34a" stroke-width="1.6" stroke-dasharray="6,4"/>
  <text x="1062" y="1273" font-size="13" fill="#111827" text-anchor="middle">Check what is missing</text>
  <text x="1062" y="1291" font-size="13" fill="#111827" text-anchor="middle">in the term</text>
  <ellipse cx="395" cy="1434" rx="100" ry="31" fill="#f0fdfa" stroke="#0d9488" stroke-width="1.6"/>
  <text x="395" y="1431" font-size="13" fill="#111827" text-anchor="middle">Dashboard for the</text>
  <text x="395" y="1449" font-size="13" fill="#111827" text-anchor="middle">guardian</text>
  <ellipse cx="618" cy="1434" rx="100" ry="31" fill="#f0fdfa" stroke="#0d9488" stroke-width="1.6"/>
  <text x="618" y="1439" font-size="13" fill="#111827" text-anchor="middle">View report card</text>
  <ellipse cx="840" cy="1434" rx="100" ry="31" fill="#f0fdfa" stroke="#0d9488" stroke-width="1.6"/>
  <text x="840" y="1439" font-size="13" fill="#111827" text-anchor="middle">View attendance</text>
  <ellipse cx="1062" cy="1434" rx="100" ry="31" fill="#f0fdfa" stroke="#0d9488" stroke-width="1.6"/>
  <text x="1062" y="1431" font-size="13" fill="#111827" text-anchor="middle">View the announcement</text>
  <text x="1062" y="1449" font-size="13" fill="#111827" text-anchor="middle">board</text>
  <ellipse cx="1285" cy="1434" rx="100" ry="31" fill="#f0fdfa" stroke="#0d9488" stroke-width="1.6"/>
  <text x="1285" y="1439" font-size="13" fill="#111827" text-anchor="middle">Read announcement</text>
  <ellipse cx="1285" cy="1534" rx="100" ry="31" fill="#ffffff" stroke="#0d9488" stroke-width="1.6" stroke-dasharray="6,4"/>
  <text x="1285" y="1531" font-size="13" fill="#111827" text-anchor="middle">Mark announcement</text>
  <text x="1285" y="1549" font-size="13" fill="#111827" text-anchor="middle">as read</text>
  <g stroke="#475569" stroke-width="2" fill="none" stroke-linecap="round">
    <circle cx="160" cy="210" r="11" fill="#ffffff"/>
    <path d="M 160,221 V 246"/>
    <path d="M 144,230 H 176"/>
    <path d="M 160,246 L 147,264"/>
    <path d="M 160,246 L 173,264"/>
  </g>
  <text x="160" y="282" font-size="13.5" font-weight="600" fill="#111827" text-anchor="middle">Authenticated</text>
  <text x="160" y="298" font-size="11.5" fill="#6b7280" text-anchor="middle">user</text>
  <g stroke="#7c3aed" stroke-width="2" fill="none" stroke-linecap="round">
    <circle cx="160" cy="418" r="11" fill="#ffffff"/>
    <path d="M 160,429 V 454"/>
    <path d="M 144,438 H 176"/>
    <path d="M 160,454 L 147,472"/>
    <path d="M 160,454 L 173,472"/>
  </g>
  <text x="160" y="490" font-size="13.5" font-weight="600" fill="#111827" text-anchor="middle">Network Admin</text>
  <g stroke="#2563eb" stroke-width="2" fill="none" stroke-linecap="round">
    <circle cx="160" cy="896" r="11" fill="#ffffff"/>
    <path d="M 160,907 V 932"/>
    <path d="M 144,916 H 176"/>
    <path d="M 160,932 L 147,950"/>
    <path d="M 160,932 L 173,950"/>
  </g>
  <text x="160" y="968" font-size="13.5" font-weight="600" fill="#111827" text-anchor="middle">Registrar</text>
  <g stroke="#16a34a" stroke-width="2" fill="none" stroke-linecap="round">
    <circle cx="160" cy="1204" r="11" fill="#ffffff"/>
    <path d="M 160,1215 V 1240"/>
    <path d="M 144,1224 H 176"/>
    <path d="M 160,1240 L 147,1258"/>
    <path d="M 160,1240 L 173,1258"/>
  </g>
  <text x="160" y="1276" font-size="13.5" font-weight="600" fill="#111827" text-anchor="middle">Teacher</text>
  <g stroke="#0d9488" stroke-width="2" fill="none" stroke-linecap="round">
    <circle cx="160" cy="1462" r="11" fill="#ffffff"/>
    <path d="M 160,1473 V 1498"/>
    <path d="M 144,1482 H 176"/>
    <path d="M 160,1498 L 147,1516"/>
    <path d="M 160,1498 L 173,1516"/>
  </g>
  <text x="160" y="1534" font-size="13.5" font-weight="600" fill="#111827" text-anchor="middle">Guardian</text>
  <g id="legend" class="legend">
  <rect x="250" y="1632" width="700" height="172" rx="10" ry="10" fill="#f9fafb" stroke="#e5e7eb" stroke-width="1.2"/>
  <text x="266" y="1656" font-size="12.5" font-weight="600" fill="#374151">Legend</text>
  <path d="M 266,1680 H 300" stroke="#2563eb" stroke-width="1.4" fill="none"/>
  <text x="310" y="1684" font-size="12" fill="#374151">Association — the actor performs the use case</text>
  <path d="M 266,1704 H 290" stroke="#111827" stroke-width="1.4" fill="none" marker-end="url(#triangle-general)"/>
  <text x="310" y="1708" font-size="12" fill="#374151">Generalisation — every role is an authenticated user</text>
  <path d="M 266,1728 H 292" stroke="#7c3aed" stroke-width="1.4" stroke-dasharray="6,4" fill="none" marker-end="url(#arrow-include)"/>
  <text x="310" y="1732" font-size="12" fill="#374151">«include» — behaviour always executed by the base case</text>
  <path d="M 266,1752 H 292" stroke="#ea580c" stroke-width="1.4" stroke-dasharray="6,4" fill="none" marker-end="url(#arrow-extend)"/>
  <text x="310" y="1756" font-size="12" fill="#374151">«extend» — optional behaviour that extends the base case</text>
  <text x="266" y="1788" font-size="11.5" fill="#6b7280">Dashed ellipse = included/extended use case, never started directly by the actor.</text>
  </g>
  <path d="M 976,1632 H 1390 L 1410,1652 V 1804 H 976 Z" fill="#fffbeb" stroke="#fcd34d" stroke-width="1.2"/>
  <path d="M 1390,1632 V 1652 H 1410" fill="none" stroke="#fcd34d" stroke-width="1.2"/>
  <text x="992" y="1658" font-size="12.5" font-weight="600" fill="#92400e">Multi-tenant scoping</text>
  <text x="992" y="1680" font-size="11.5" fill="#78350f">Every use case happens inside a network: the network_id in</text>
  <text x="992" y="1696" font-size="11.5" fill="#78350f">the session scopes what each role sees. Roles are assigned</text>
  <text x="992" y="1712" font-size="11.5" fill="#78350f">per school — the same person can be a registrar at one</text>
  <text x="992" y="1728" font-size="11.5" fill="#78350f">school and a guardian at another, and requireRole() only</text>
  <text x="992" y="1744" font-size="11.5" fill="#78350f">checks that the role exists, not which records it covers.</text>
  <text x="992" y="1760" font-size="11.5" fill="#78350f"></text>
  <text x="992" y="1776" font-size="11.5" fill="#78350f">Publish announcement and Track reads are the only two cases</text>
  <text x="992" y="1792" font-size="11.5" fill="#78350f">shared between two primary actors.</text>
</svg>